<mxfile host="Electron" modified="2023-05-19T18:35:25.598Z" agent="Mozilla/5.0 (Windows NT 10.0; Win64; x64) AppleWebKit/537.36 (KHTML, like Gecko) draw.io/21.2.8 Chrome/112.0.5615.165 Electron/24.2.0 Safari/537.36" etag="uH3swUk5Sp9ocWoN8bCV" version="21.2.8" type="device">
  <diagram name="Page-1" id="0SUwLg295NydfQJ0HCyk">
    <mxGraphModel dx="2126" dy="606" grid="1" gridSize="10" guides="1" tooltips="1" connect="1" arrows="1" fold="1" page="1" pageScale="1" pageWidth="850" pageHeight="1100" math="0" shadow="0">
      <root>
        <mxCell id="0" />
        <mxCell id="1" parent="0" />
        <mxCell id="wv0iCeW0pls4u1Xk4wzR-1" value="" style="shape=umlLifeline;perimeter=lifelinePerimeter;whiteSpace=wrap;html=1;container=1;dropTarget=0;collapsible=0;recursiveResize=0;outlineConnect=0;portConstraint=eastwest;newEdgeStyle={&quot;edgeStyle&quot;:&quot;elbowEdgeStyle&quot;,&quot;elbow&quot;:&quot;vertical&quot;,&quot;curved&quot;:0,&quot;rounded&quot;:0};participant=umlActor;" parent="1" vertex="1">
          <mxGeometry x="30" y="150" width="20" height="2250" as="geometry" />
        </mxCell>
        <mxCell id="wv0iCeW0pls4u1Xk4wzR-2" value="Πελάτης" style="text;html=1;align=center;verticalAlign=middle;resizable=0;points=[];autosize=1;strokeColor=none;fillColor=none;" parent="1" vertex="1">
          <mxGeometry x="5" y="120" width="70" height="30" as="geometry" />
        </mxCell>
        <mxCell id="wv0iCeW0pls4u1Xk4wzR-3" value="" style="shape=umlLifeline;perimeter=lifelinePerimeter;whiteSpace=wrap;html=1;container=1;dropTarget=0;collapsible=0;recursiveResize=0;outlineConnect=0;portConstraint=eastwest;newEdgeStyle={&quot;edgeStyle&quot;:&quot;elbowEdgeStyle&quot;,&quot;elbow&quot;:&quot;vertical&quot;,&quot;curved&quot;:0,&quot;rounded&quot;:0};participant=umlBoundary;" parent="1" vertex="1">
          <mxGeometry x="170" y="150" width="50" height="2250" as="geometry" />
        </mxCell>
        <mxCell id="wv0iCeW0pls4u1Xk4wzR-5" value="" style="html=1;points=[];perimeter=orthogonalPerimeter;outlineConnect=0;targetShapes=umlLifeline;portConstraint=eastwest;newEdgeStyle={&quot;edgeStyle&quot;:&quot;elbowEdgeStyle&quot;,&quot;elbow&quot;:&quot;vertical&quot;,&quot;curved&quot;:0,&quot;rounded&quot;:0};" parent="wv0iCeW0pls4u1Xk4wzR-3" vertex="1">
          <mxGeometry x="20" y="70" width="10" height="1620" as="geometry" />
        </mxCell>
        <mxCell id="wv0iCeW0pls4u1Xk4wzR-4" value="Κύρια Οθόνη &lt;br&gt;Χρήστη" style="text;html=1;align=center;verticalAlign=middle;resizable=0;points=[];autosize=1;strokeColor=none;fillColor=none;" parent="1" vertex="1">
          <mxGeometry x="140" y="90" width="90" height="40" as="geometry" />
        </mxCell>
        <mxCell id="wv0iCeW0pls4u1Xk4wzR-7" value="" style="shape=umlLifeline;perimeter=lifelinePerimeter;whiteSpace=wrap;html=1;container=1;dropTarget=0;collapsible=0;recursiveResize=0;outlineConnect=0;portConstraint=eastwest;newEdgeStyle={&quot;edgeStyle&quot;:&quot;elbowEdgeStyle&quot;,&quot;elbow&quot;:&quot;vertical&quot;,&quot;curved&quot;:0,&quot;rounded&quot;:0};participant=umlEntity;" parent="1" vertex="1">
          <mxGeometry x="340" y="150" width="40" height="2250" as="geometry" />
        </mxCell>
        <mxCell id="wv0iCeW0pls4u1Xk4wzR-8" value="" style="html=1;points=[];perimeter=orthogonalPerimeter;outlineConnect=0;targetShapes=umlLifeline;portConstraint=eastwest;newEdgeStyle={&quot;edgeStyle&quot;:&quot;elbowEdgeStyle&quot;,&quot;elbow&quot;:&quot;vertical&quot;,&quot;curved&quot;:0,&quot;rounded&quot;:0};" parent="wv0iCeW0pls4u1Xk4wzR-7" vertex="1">
          <mxGeometry x="15" y="110" width="10" height="50" as="geometry" />
        </mxCell>
        <mxCell id="wv0iCeW0pls4u1Xk4wzR-33" value="" style="html=1;points=[];perimeter=orthogonalPerimeter;outlineConnect=0;targetShapes=umlLifeline;portConstraint=eastwest;newEdgeStyle={&quot;edgeStyle&quot;:&quot;elbowEdgeStyle&quot;,&quot;elbow&quot;:&quot;vertical&quot;,&quot;curved&quot;:0,&quot;rounded&quot;:0};" parent="wv0iCeW0pls4u1Xk4wzR-7" vertex="1">
          <mxGeometry x="15" y="440" width="10" height="440" as="geometry" />
        </mxCell>
        <mxCell id="wv0iCeW0pls4u1Xk4wzR-11" value="προϊοντα" style="text;html=1;align=center;verticalAlign=middle;resizable=0;points=[];autosize=1;strokeColor=none;fillColor=none;" parent="1" vertex="1">
          <mxGeometry x="310" y="90" width="70" height="30" as="geometry" />
        </mxCell>
        <mxCell id="wv0iCeW0pls4u1Xk4wzR-12" value="" style="shape=umlLifeline;perimeter=lifelinePerimeter;whiteSpace=wrap;html=1;container=1;dropTarget=0;collapsible=0;recursiveResize=0;outlineConnect=0;portConstraint=eastwest;newEdgeStyle={&quot;edgeStyle&quot;:&quot;elbowEdgeStyle&quot;,&quot;elbow&quot;:&quot;vertical&quot;,&quot;curved&quot;:0,&quot;rounded&quot;:0};participant=umlBoundary;" parent="1" vertex="1">
          <mxGeometry x="500" y="145" width="50" height="2255" as="geometry" />
        </mxCell>
        <mxCell id="wv0iCeW0pls4u1Xk4wzR-13" value="" style="html=1;points=[];perimeter=orthogonalPerimeter;outlineConnect=0;targetShapes=umlLifeline;portConstraint=eastwest;newEdgeStyle={&quot;edgeStyle&quot;:&quot;elbowEdgeStyle&quot;,&quot;elbow&quot;:&quot;vertical&quot;,&quot;curved&quot;:0,&quot;rounded&quot;:0};" parent="wv0iCeW0pls4u1Xk4wzR-12" vertex="1">
          <mxGeometry x="20" y="160" width="10" height="280" as="geometry" />
        </mxCell>
        <mxCell id="wv0iCeW0pls4u1Xk4wzR-15" value="Προϊόντα συγκεκριμένης&lt;br style=&quot;border-color: var(--border-color); font-size: 14px;&quot;&gt;&lt;span style=&quot;border-color: var(--border-color); font-size: 14px;&quot;&gt;κατηγορίας&lt;/span&gt;" style="text;html=1;align=center;verticalAlign=middle;resizable=0;points=[];autosize=1;strokeColor=none;fillColor=none;" parent="1" vertex="1">
          <mxGeometry x="450" y="70" width="150" height="40" as="geometry" />
        </mxCell>
        <mxCell id="wv0iCeW0pls4u1Xk4wzR-17" value="" style="shape=umlLifeline;perimeter=lifelinePerimeter;whiteSpace=wrap;html=1;container=1;dropTarget=0;collapsible=0;recursiveResize=0;outlineConnect=0;portConstraint=eastwest;newEdgeStyle={&quot;edgeStyle&quot;:&quot;elbowEdgeStyle&quot;,&quot;elbow&quot;:&quot;vertical&quot;,&quot;curved&quot;:0,&quot;rounded&quot;:0};participant=umlBoundary;" parent="1" vertex="1">
          <mxGeometry x="680" y="150" width="50" height="2250" as="geometry" />
        </mxCell>
        <mxCell id="wv0iCeW0pls4u1Xk4wzR-19" value="" style="html=1;points=[];perimeter=orthogonalPerimeter;outlineConnect=0;targetShapes=umlLifeline;portConstraint=eastwest;newEdgeStyle={&quot;edgeStyle&quot;:&quot;elbowEdgeStyle&quot;,&quot;elbow&quot;:&quot;vertical&quot;,&quot;curved&quot;:0,&quot;rounded&quot;:0};" parent="wv0iCeW0pls4u1Xk4wzR-17" vertex="1">
          <mxGeometry x="20" y="220" width="10" height="190" as="geometry" />
        </mxCell>
        <mxCell id="wv0iCeW0pls4u1Xk4wzR-18" value="Προσθήκη στα&lt;br&gt;&amp;nbsp;Αγαπημένα;" style="text;html=1;align=center;verticalAlign=middle;resizable=0;points=[];autosize=1;strokeColor=none;fillColor=none;" parent="1" vertex="1">
          <mxGeometry x="650" y="80" width="100" height="40" as="geometry" />
        </mxCell>
        <mxCell id="wv0iCeW0pls4u1Xk4wzR-22" value="alternative" style="shape=umlFrame;whiteSpace=wrap;html=1;pointerEvents=0;fillColor=#f8cecc;strokeColor=#b85450;" parent="1" vertex="1">
          <mxGeometry x="-50" y="450" width="970" height="80" as="geometry" />
        </mxCell>
        <mxCell id="wv0iCeW0pls4u1Xk4wzR-25" value="yes favorite" style="text;html=1;align=center;verticalAlign=middle;resizable=0;points=[];autosize=1;strokeColor=none;fillColor=none;" parent="1" vertex="1">
          <mxGeometry x="-50" y="488" width="80" height="30" as="geometry" />
        </mxCell>
        <mxCell id="wv0iCeW0pls4u1Xk4wzR-28" value="" style="shape=umlLifeline;perimeter=lifelinePerimeter;whiteSpace=wrap;html=1;container=1;dropTarget=0;collapsible=0;recursiveResize=0;outlineConnect=0;portConstraint=eastwest;newEdgeStyle={&quot;edgeStyle&quot;:&quot;elbowEdgeStyle&quot;,&quot;elbow&quot;:&quot;vertical&quot;,&quot;curved&quot;:0,&quot;rounded&quot;:0};participant=umlEntity;" parent="1" vertex="1">
          <mxGeometry x="830" y="150" width="40" height="2250" as="geometry" />
        </mxCell>
        <mxCell id="wv0iCeW0pls4u1Xk4wzR-29" value="" style="html=1;points=[];perimeter=orthogonalPerimeter;outlineConnect=0;targetShapes=umlLifeline;portConstraint=eastwest;newEdgeStyle={&quot;edgeStyle&quot;:&quot;elbowEdgeStyle&quot;,&quot;elbow&quot;:&quot;vertical&quot;,&quot;curved&quot;:0,&quot;rounded&quot;:0};" parent="wv0iCeW0pls4u1Xk4wzR-28" vertex="1">
          <mxGeometry x="15" y="330" width="10" height="30" as="geometry" />
        </mxCell>
        <mxCell id="wv0iCeW0pls4u1Xk4wzR-31" value="Αγαπημένα &lt;br&gt;Προϊόντα" style="text;html=1;align=center;verticalAlign=middle;resizable=0;points=[];autosize=1;strokeColor=none;fillColor=none;" parent="1" vertex="1">
          <mxGeometry x="810" y="80" width="80" height="40" as="geometry" />
        </mxCell>
        <mxCell id="wv0iCeW0pls4u1Xk4wzR-32" value="not_favorite()()" style="html=1;verticalAlign=bottom;endArrow=open;dashed=1;endSize=8;edgeStyle=elbowEdgeStyle;elbow=vertical;curved=0;rounded=0;" parent="1" source="wv0iCeW0pls4u1Xk4wzR-19" target="wv0iCeW0pls4u1Xk4wzR-12" edge="1">
          <mxGeometry x="-0.2283" relative="1" as="geometry">
            <mxPoint x="610" y="560" as="sourcePoint" />
            <mxPoint x="510" y="560" as="targetPoint" />
            <Array as="points">
              <mxPoint x="630" y="560" />
              <mxPoint x="540" y="560" />
            </Array>
            <mxPoint as="offset" />
          </mxGeometry>
        </mxCell>
        <mxCell id="wv0iCeW0pls4u1Xk4wzR-34" value="check_stock()" style="html=1;verticalAlign=bottom;endArrow=open;dashed=1;endSize=8;edgeStyle=elbowEdgeStyle;elbow=vertical;curved=0;rounded=0;" parent="1" source="wv0iCeW0pls4u1Xk4wzR-12" target="wv0iCeW0pls4u1Xk4wzR-33" edge="1">
          <mxGeometry x="0.0074" relative="1" as="geometry">
            <mxPoint x="505" y="590" as="sourcePoint" />
            <mxPoint x="400" y="580" as="targetPoint" />
            <Array as="points">
              <mxPoint x="460" y="590" />
              <mxPoint x="410" y="570" />
            </Array>
            <mxPoint as="offset" />
          </mxGeometry>
        </mxCell>
        <mxCell id="wv0iCeW0pls4u1Xk4wzR-35" value="alternative" style="shape=umlFrame;whiteSpace=wrap;html=1;pointerEvents=0;fillColor=#f8cecc;strokeColor=#b85450;" parent="1" vertex="1">
          <mxGeometry x="220" y="650" width="1420" height="350" as="geometry" />
        </mxCell>
        <mxCell id="wv0iCeW0pls4u1Xk4wzR-37" value="stock=0" style="text;html=1;align=center;verticalAlign=middle;resizable=0;points=[];autosize=1;strokeColor=none;fillColor=none;" parent="1" vertex="1">
          <mxGeometry x="230" y="690" width="70" height="30" as="geometry" />
        </mxCell>
        <mxCell id="wv0iCeW0pls4u1Xk4wzR-38" value="" style="shape=umlLifeline;perimeter=lifelinePerimeter;whiteSpace=wrap;html=1;container=1;dropTarget=0;collapsible=0;recursiveResize=0;outlineConnect=0;portConstraint=eastwest;newEdgeStyle={&quot;edgeStyle&quot;:&quot;elbowEdgeStyle&quot;,&quot;elbow&quot;:&quot;vertical&quot;,&quot;curved&quot;:0,&quot;rounded&quot;:0};participant=umlEntity;" parent="1" vertex="1">
          <mxGeometry x="960" y="150" width="40" height="2250" as="geometry" />
        </mxCell>
        <mxCell id="wv0iCeW0pls4u1Xk4wzR-41" value="" style="html=1;points=[];perimeter=orthogonalPerimeter;outlineConnect=0;targetShapes=umlLifeline;portConstraint=eastwest;newEdgeStyle={&quot;edgeStyle&quot;:&quot;elbowEdgeStyle&quot;,&quot;elbow&quot;:&quot;vertical&quot;,&quot;curved&quot;:0,&quot;rounded&quot;:0};" parent="wv0iCeW0pls4u1Xk4wzR-38" vertex="1">
          <mxGeometry x="15" y="530" width="10" height="240" as="geometry" />
        </mxCell>
        <mxCell id="wv0iCeW0pls4u1Xk4wzR-94" value="" style="html=1;points=[];perimeter=orthogonalPerimeter;outlineConnect=0;targetShapes=umlLifeline;portConstraint=eastwest;newEdgeStyle={&quot;edgeStyle&quot;:&quot;elbowEdgeStyle&quot;,&quot;elbow&quot;:&quot;vertical&quot;,&quot;curved&quot;:0,&quot;rounded&quot;:0};" parent="wv0iCeW0pls4u1Xk4wzR-38" vertex="1">
          <mxGeometry x="15" y="1330" width="10" height="460" as="geometry" />
        </mxCell>
        <mxCell id="wv0iCeW0pls4u1Xk4wzR-39" value="premium" style="text;html=1;align=center;verticalAlign=middle;resizable=0;points=[];autosize=1;strokeColor=none;fillColor=none;" parent="1" vertex="1">
          <mxGeometry x="920" y="80" width="70" height="30" as="geometry" />
        </mxCell>
        <mxCell id="wv0iCeW0pls4u1Xk4wzR-43" value="alternative" style="shape=umlFrame;whiteSpace=wrap;html=1;pointerEvents=0;fillColor=#f8cecc;strokeColor=#b85450;" parent="1" vertex="1">
          <mxGeometry x="570" y="720" width="770" height="160" as="geometry" />
        </mxCell>
        <mxCell id="wv0iCeW0pls4u1Xk4wzR-45" value="premium=yes" style="text;html=1;align=center;verticalAlign=middle;resizable=0;points=[];autosize=1;strokeColor=none;fillColor=none;" parent="1" vertex="1">
          <mxGeometry x="560" y="750" width="100" height="30" as="geometry" />
        </mxCell>
        <mxCell id="wv0iCeW0pls4u1Xk4wzR-46" value="premium=no" style="text;html=1;align=center;verticalAlign=middle;resizable=0;points=[];autosize=1;strokeColor=none;fillColor=none;" parent="1" vertex="1">
          <mxGeometry x="565" y="880" width="90" height="30" as="geometry" />
        </mxCell>
        <mxCell id="wv0iCeW0pls4u1Xk4wzR-47" value="" style="shape=umlLifeline;perimeter=lifelinePerimeter;whiteSpace=wrap;html=1;container=1;dropTarget=0;collapsible=0;recursiveResize=0;outlineConnect=0;portConstraint=eastwest;newEdgeStyle={&quot;edgeStyle&quot;:&quot;elbowEdgeStyle&quot;,&quot;elbow&quot;:&quot;vertical&quot;,&quot;curved&quot;:0,&quot;rounded&quot;:0};participant=umlBoundary;" parent="1" vertex="1">
          <mxGeometry x="1100" y="150" width="50" height="2250" as="geometry" />
        </mxCell>
        <mxCell id="wv0iCeW0pls4u1Xk4wzR-48" value="" style="html=1;points=[];perimeter=orthogonalPerimeter;outlineConnect=0;targetShapes=umlLifeline;portConstraint=eastwest;newEdgeStyle={&quot;edgeStyle&quot;:&quot;elbowEdgeStyle&quot;,&quot;elbow&quot;:&quot;vertical&quot;,&quot;curved&quot;:0,&quot;rounded&quot;:0};" parent="wv0iCeW0pls4u1Xk4wzR-47" vertex="1">
          <mxGeometry x="20" y="600" width="10" height="90" as="geometry" />
        </mxCell>
        <mxCell id="wv0iCeW0pls4u1Xk4wzR-50" value="Οθόνη για επιλογή &lt;br&gt;μεταξύ ενφιαφέροντος &lt;br&gt;και εναλλακτικών" style="text;html=1;align=center;verticalAlign=middle;resizable=0;points=[];autosize=1;strokeColor=none;fillColor=none;" parent="1" vertex="1">
          <mxGeometry x="1045" y="65" width="140" height="60" as="geometry" />
        </mxCell>
        <mxCell id="wv0iCeW0pls4u1Xk4wzR-51" value="alternative" style="shape=umlFrame;whiteSpace=wrap;html=1;pointerEvents=0;fillColor=#f8cecc;strokeColor=#b85450;" parent="1" vertex="1">
          <mxGeometry x="880" y="770" width="400" height="80" as="geometry" />
        </mxCell>
        <mxCell id="wv0iCeW0pls4u1Xk4wzR-52" value="interest yes" style="text;html=1;align=center;verticalAlign=middle;resizable=0;points=[];autosize=1;strokeColor=none;fillColor=none;" parent="1" vertex="1">
          <mxGeometry x="880" y="795" width="80" height="30" as="geometry" />
        </mxCell>
        <mxCell id="wv0iCeW0pls4u1Xk4wzR-53" value="ενδιαφερόμενα&lt;br&gt;&amp;nbsp;προϊόντα&amp;nbsp;&lt;br&gt;premium" style="text;html=1;align=center;verticalAlign=middle;resizable=0;points=[];autosize=1;strokeColor=none;fillColor=none;" parent="1" vertex="1">
          <mxGeometry x="1200" y="60" width="100" height="60" as="geometry" />
        </mxCell>
        <mxCell id="wv0iCeW0pls4u1Xk4wzR-54" value="" style="endArrow=none;html=1;rounded=0;entryX=1.007;entryY=0.635;entryDx=0;entryDy=0;entryPerimeter=0;exitX=-0.01;exitY=0.655;exitDx=0;exitDy=0;exitPerimeter=0;fillColor=#f8cecc;strokeColor=#b85450;" parent="1" source="wv0iCeW0pls4u1Xk4wzR-51" target="wv0iCeW0pls4u1Xk4wzR-51" edge="1">
          <mxGeometry width="50" height="50" relative="1" as="geometry">
            <mxPoint x="1095" y="830" as="sourcePoint" />
            <mxPoint x="1145" y="780" as="targetPoint" />
          </mxGeometry>
        </mxCell>
        <mxCell id="wv0iCeW0pls4u1Xk4wzR-55" value="" style="shape=umlLifeline;perimeter=lifelinePerimeter;whiteSpace=wrap;html=1;container=1;dropTarget=0;collapsible=0;recursiveResize=0;outlineConnect=0;portConstraint=eastwest;newEdgeStyle={&quot;edgeStyle&quot;:&quot;elbowEdgeStyle&quot;,&quot;elbow&quot;:&quot;vertical&quot;,&quot;curved&quot;:0,&quot;rounded&quot;:0};participant=umlEntity;" parent="1" vertex="1">
          <mxGeometry x="1230" y="150" width="40" height="2250" as="geometry" />
        </mxCell>
        <mxCell id="wv0iCeW0pls4u1Xk4wzR-56" value="" style="html=1;points=[];perimeter=orthogonalPerimeter;outlineConnect=0;targetShapes=umlLifeline;portConstraint=eastwest;newEdgeStyle={&quot;edgeStyle&quot;:&quot;elbowEdgeStyle&quot;,&quot;elbow&quot;:&quot;vertical&quot;,&quot;curved&quot;:0,&quot;rounded&quot;:0};" parent="wv0iCeW0pls4u1Xk4wzR-55" vertex="1">
          <mxGeometry x="15" y="650" width="10" height="20" as="geometry" />
        </mxCell>
        <mxCell id="wv0iCeW0pls4u1Xk4wzR-59" value="no favorite" style="text;html=1;align=center;verticalAlign=middle;resizable=0;points=[];autosize=1;strokeColor=none;fillColor=none;" parent="1" vertex="1">
          <mxGeometry x="-60" y="540" width="80" height="30" as="geometry" />
        </mxCell>
        <mxCell id="wv0iCeW0pls4u1Xk4wzR-61" value="" style="shape=umlLifeline;perimeter=lifelinePerimeter;whiteSpace=wrap;html=1;container=1;dropTarget=0;collapsible=0;recursiveResize=0;outlineConnect=0;portConstraint=eastwest;newEdgeStyle={&quot;edgeStyle&quot;:&quot;elbowEdgeStyle&quot;,&quot;elbow&quot;:&quot;vertical&quot;,&quot;curved&quot;:0,&quot;rounded&quot;:0};participant=umlEntity;" parent="1" vertex="1">
          <mxGeometry x="1380" y="150" width="40" height="2250" as="geometry" />
        </mxCell>
        <mxCell id="wv0iCeW0pls4u1Xk4wzR-63" value="" style="html=1;points=[];perimeter=orthogonalPerimeter;outlineConnect=0;targetShapes=umlLifeline;portConstraint=eastwest;newEdgeStyle={&quot;edgeStyle&quot;:&quot;elbowEdgeStyle&quot;,&quot;elbow&quot;:&quot;vertical&quot;,&quot;curved&quot;:0,&quot;rounded&quot;:0};" parent="wv0iCeW0pls4u1Xk4wzR-61" vertex="1">
          <mxGeometry x="15" y="880" width="10" height="120" as="geometry" />
        </mxCell>
        <mxCell id="wv0iCeW0pls4u1Xk4wzR-62" value="Φαρμακεία" style="text;html=1;align=center;verticalAlign=middle;resizable=0;points=[];autosize=1;strokeColor=none;fillColor=none;" parent="1" vertex="1">
          <mxGeometry x="1345" y="95" width="80" height="30" as="geometry" />
        </mxCell>
        <mxCell id="wv0iCeW0pls4u1Xk4wzR-65" value="" style="shape=umlLifeline;perimeter=lifelinePerimeter;whiteSpace=wrap;html=1;container=1;dropTarget=0;collapsible=0;recursiveResize=0;outlineConnect=0;portConstraint=eastwest;newEdgeStyle={&quot;edgeStyle&quot;:&quot;elbowEdgeStyle&quot;,&quot;elbow&quot;:&quot;vertical&quot;,&quot;curved&quot;:0,&quot;rounded&quot;:0};participant=umlBoundary;" parent="1" vertex="1">
          <mxGeometry x="1660" y="150" width="50" height="2250" as="geometry" />
        </mxCell>
        <mxCell id="wv0iCeW0pls4u1Xk4wzR-67" value="" style="html=1;points=[];perimeter=orthogonalPerimeter;outlineConnect=0;targetShapes=umlLifeline;portConstraint=eastwest;newEdgeStyle={&quot;edgeStyle&quot;:&quot;elbowEdgeStyle&quot;,&quot;elbow&quot;:&quot;vertical&quot;,&quot;curved&quot;:0,&quot;rounded&quot;:0};" parent="wv0iCeW0pls4u1Xk4wzR-65" vertex="1">
          <mxGeometry x="20" y="1000" width="10" height="80" as="geometry" />
        </mxCell>
        <mxCell id="wv0iCeW0pls4u1Xk4wzR-66" value="Φαρμακεία που &lt;br&gt;διαθέτουν&amp;nbsp;προϊόν" style="text;html=1;align=center;verticalAlign=middle;resizable=0;points=[];autosize=1;strokeColor=none;fillColor=none;" parent="1" vertex="1">
          <mxGeometry x="1620" y="80" width="120" height="40" as="geometry" />
        </mxCell>
        <mxCell id="wv0iCeW0pls4u1Xk4wzR-72" value="" style="shape=umlLifeline;perimeter=lifelinePerimeter;whiteSpace=wrap;html=1;container=1;dropTarget=0;collapsible=0;recursiveResize=0;outlineConnect=0;portConstraint=eastwest;newEdgeStyle={&quot;edgeStyle&quot;:&quot;elbowEdgeStyle&quot;,&quot;elbow&quot;:&quot;vertical&quot;,&quot;curved&quot;:0,&quot;rounded&quot;:0};participant=umlEntity;" parent="1" vertex="1">
          <mxGeometry x="1790" y="145" width="40" height="2255" as="geometry" />
        </mxCell>
        <mxCell id="wv0iCeW0pls4u1Xk4wzR-73" value="" style="html=1;points=[];perimeter=orthogonalPerimeter;outlineConnect=0;targetShapes=umlLifeline;portConstraint=eastwest;newEdgeStyle={&quot;edgeStyle&quot;:&quot;elbowEdgeStyle&quot;,&quot;elbow&quot;:&quot;vertical&quot;,&quot;curved&quot;:0,&quot;rounded&quot;:0};" parent="wv0iCeW0pls4u1Xk4wzR-72" vertex="1">
          <mxGeometry x="15" y="1080" width="10" height="90" as="geometry" />
        </mxCell>
        <mxCell id="wv0iCeW0pls4u1Xk4wzR-93" value="" style="html=1;points=[];perimeter=orthogonalPerimeter;outlineConnect=0;targetShapes=umlLifeline;portConstraint=eastwest;newEdgeStyle={&quot;edgeStyle&quot;:&quot;elbowEdgeStyle&quot;,&quot;elbow&quot;:&quot;vertical&quot;,&quot;curved&quot;:0,&quot;rounded&quot;:0};" parent="wv0iCeW0pls4u1Xk4wzR-72" vertex="1">
          <mxGeometry x="15" y="1300" width="10" height="760" as="geometry" />
        </mxCell>
        <mxCell id="wv0iCeW0pls4u1Xk4wzR-74" value="add_to_cart()" style="html=1;verticalAlign=bottom;startArrow=oval;endArrow=block;startSize=8;edgeStyle=elbowEdgeStyle;elbow=vertical;curved=0;rounded=0;" parent="1" source="wv0iCeW0pls4u1Xk4wzR-65" target="wv0iCeW0pls4u1Xk4wzR-73" edge="1">
          <mxGeometry x="-0.0759" relative="1" as="geometry">
            <mxPoint x="1470" y="1170" as="sourcePoint" />
            <Array as="points">
              <mxPoint x="1770" y="1230" />
              <mxPoint x="1630" y="1230" />
              <mxPoint x="1630" y="1220" />
              <mxPoint x="1480" y="1230" />
            </Array>
            <mxPoint as="offset" />
          </mxGeometry>
        </mxCell>
        <mxCell id="wv0iCeW0pls4u1Xk4wzR-75" value="καλάθι" style="text;html=1;align=center;verticalAlign=middle;resizable=0;points=[];autosize=1;strokeColor=none;fillColor=none;" parent="1" vertex="1">
          <mxGeometry x="1780" y="95" width="60" height="30" as="geometry" />
        </mxCell>
        <mxCell id="wv0iCeW0pls4u1Xk4wzR-76" value="" style="shape=umlLifeline;perimeter=lifelinePerimeter;whiteSpace=wrap;html=1;container=1;dropTarget=0;collapsible=0;recursiveResize=0;outlineConnect=0;portConstraint=eastwest;newEdgeStyle={&quot;edgeStyle&quot;:&quot;elbowEdgeStyle&quot;,&quot;elbow&quot;:&quot;vertical&quot;,&quot;curved&quot;:0,&quot;rounded&quot;:0};participant=umlBoundary;" parent="1" vertex="1">
          <mxGeometry x="1910" y="150" width="50" height="2250" as="geometry" />
        </mxCell>
        <mxCell id="wv0iCeW0pls4u1Xk4wzR-77" value="" style="html=1;points=[];perimeter=orthogonalPerimeter;outlineConnect=0;targetShapes=umlLifeline;portConstraint=eastwest;newEdgeStyle={&quot;edgeStyle&quot;:&quot;elbowEdgeStyle&quot;,&quot;elbow&quot;:&quot;vertical&quot;,&quot;curved&quot;:0,&quot;rounded&quot;:0};" parent="wv0iCeW0pls4u1Xk4wzR-76" vertex="1">
          <mxGeometry x="20" y="1160" width="10" height="140" as="geometry" />
        </mxCell>
        <mxCell id="wv0iCeW0pls4u1Xk4wzR-79" value="alternative" style="shape=umlFrame;whiteSpace=wrap;html=1;pointerEvents=0;fillColor=#f8cecc;strokeColor=#b85450;" parent="1" vertex="1">
          <mxGeometry x="-50" y="1360" width="2030" height="60" as="geometry" />
        </mxCell>
        <mxCell id="wv0iCeW0pls4u1Xk4wzR-81" value="add more" style="text;html=1;align=center;verticalAlign=middle;resizable=0;points=[];autosize=1;strokeColor=none;fillColor=none;" parent="1" vertex="1">
          <mxGeometry x="-50" y="1390" width="70" height="30" as="geometry" />
        </mxCell>
        <mxCell id="wv0iCeW0pls4u1Xk4wzR-83" value="add_more_products()" style="html=1;verticalAlign=bottom;endArrow=open;dashed=1;endSize=8;edgeStyle=elbowEdgeStyle;elbow=vertical;curved=0;rounded=0;" parent="1" source="wv0iCeW0pls4u1Xk4wzR-77" target="wv0iCeW0pls4u1Xk4wzR-3" edge="1">
          <mxGeometry x="0.0905" relative="1" as="geometry">
            <mxPoint x="1640" y="1390" as="sourcePoint" />
            <mxPoint x="1560" y="1390" as="targetPoint" />
            <Array as="points">
              <mxPoint x="270" y="1390" />
            </Array>
            <mxPoint as="offset" />
          </mxGeometry>
        </mxCell>
        <mxCell id="wv0iCeW0pls4u1Xk4wzR-86" value="finish order" style="text;html=1;align=center;verticalAlign=middle;resizable=0;points=[];autosize=1;strokeColor=none;fillColor=none;" parent="1" vertex="1">
          <mxGeometry x="-50" y="1438" width="80" height="30" as="geometry" />
        </mxCell>
        <mxCell id="wv0iCeW0pls4u1Xk4wzR-87" value="&lt;font style=&quot;font-size: 11px;&quot;&gt;Καλάθι παραγγελιών με επιλογές&lt;br style=&quot;border-color: var(--border-color);&quot;&gt;&lt;span style=&quot;border-color: var(--border-color);&quot;&gt;Προσθήκη άλλου προϊόντος ή&lt;/span&gt;&lt;br style=&quot;border-color: var(--border-color);&quot;&gt;&lt;span style=&quot;border-color: var(--border-color);&quot;&gt;ολοκλήρωση παραγγελίας&lt;/span&gt;&lt;/font&gt;" style="text;html=1;align=center;verticalAlign=middle;resizable=0;points=[];autosize=1;strokeColor=none;fillColor=none;" parent="1" vertex="1">
          <mxGeometry x="1845" y="65" width="180" height="60" as="geometry" />
        </mxCell>
        <mxCell id="wv0iCeW0pls4u1Xk4wzR-92" value="check_sum()" style="html=1;verticalAlign=bottom;endArrow=open;dashed=1;endSize=8;edgeStyle=elbowEdgeStyle;elbow=vertical;curved=0;rounded=0;" parent="1" source="wv0iCeW0pls4u1Xk4wzR-77" target="wv0iCeW0pls4u1Xk4wzR-72" edge="1">
          <mxGeometry relative="1" as="geometry">
            <mxPoint x="1720" y="1440" as="sourcePoint" />
            <mxPoint x="1590" y="1450" as="targetPoint" />
            <Array as="points">
              <mxPoint x="1900" y="1450" />
              <mxPoint x="1880" y="1460" />
              <mxPoint x="1730" y="1450" />
              <mxPoint x="1790" y="1450" />
            </Array>
          </mxGeometry>
        </mxCell>
        <mxCell id="wv0iCeW0pls4u1Xk4wzR-96" value="check_premium()" style="html=1;verticalAlign=bottom;endArrow=open;dashed=1;endSize=8;edgeStyle=elbowEdgeStyle;elbow=vertical;curved=0;rounded=0;" parent="1" source="wv0iCeW0pls4u1Xk4wzR-93" target="wv0iCeW0pls4u1Xk4wzR-38" edge="1">
          <mxGeometry relative="1" as="geometry">
            <mxPoint x="1540" y="1480" as="sourcePoint" />
            <mxPoint x="1460" y="1480" as="targetPoint" />
            <Array as="points">
              <mxPoint x="1010" y="1480" />
            </Array>
          </mxGeometry>
        </mxCell>
        <mxCell id="wv0iCeW0pls4u1Xk4wzR-97" value="alternative" style="shape=umlFrame;whiteSpace=wrap;html=1;pointerEvents=0;fillColor=#f8cecc;strokeColor=#b85450;" parent="1" vertex="1">
          <mxGeometry x="-50" y="1630" width="2730" height="260" as="geometry" />
        </mxCell>
        <mxCell id="wv0iCeW0pls4u1Xk4wzR-98" value="premium no" style="text;html=1;align=center;verticalAlign=middle;resizable=0;points=[];autosize=1;strokeColor=none;fillColor=none;" parent="1" vertex="1">
          <mxGeometry x="-55" y="1650" width="90" height="30" as="geometry" />
        </mxCell>
        <mxCell id="wv0iCeW0pls4u1Xk4wzR-99" value="" style="shape=umlLifeline;perimeter=lifelinePerimeter;whiteSpace=wrap;html=1;container=1;dropTarget=0;collapsible=0;recursiveResize=0;outlineConnect=0;portConstraint=eastwest;newEdgeStyle={&quot;edgeStyle&quot;:&quot;elbowEdgeStyle&quot;,&quot;elbow&quot;:&quot;vertical&quot;,&quot;curved&quot;:0,&quot;rounded&quot;:0};participant=umlBoundary;" parent="1" vertex="1">
          <mxGeometry x="2050" y="150" width="50" height="2250" as="geometry" />
        </mxCell>
        <mxCell id="wv0iCeW0pls4u1Xk4wzR-101" value="" style="html=1;points=[];perimeter=orthogonalPerimeter;outlineConnect=0;targetShapes=umlLifeline;portConstraint=eastwest;newEdgeStyle={&quot;edgeStyle&quot;:&quot;elbowEdgeStyle&quot;,&quot;elbow&quot;:&quot;vertical&quot;,&quot;curved&quot;:0,&quot;rounded&quot;:0};" parent="wv0iCeW0pls4u1Xk4wzR-99" vertex="1">
          <mxGeometry x="20" y="1530" width="10" height="110" as="geometry" />
        </mxCell>
        <mxCell id="wv0iCeW0pls4u1Xk4wzR-129" value="" style="html=1;points=[];perimeter=orthogonalPerimeter;outlineConnect=0;targetShapes=umlLifeline;portConstraint=eastwest;newEdgeStyle={&quot;edgeStyle&quot;:&quot;elbowEdgeStyle&quot;,&quot;elbow&quot;:&quot;vertical&quot;,&quot;curved&quot;:0,&quot;rounded&quot;:0};" parent="wv0iCeW0pls4u1Xk4wzR-99" vertex="1">
          <mxGeometry x="20" y="2050" width="10" height="70" as="geometry" />
        </mxCell>
        <mxCell id="wv0iCeW0pls4u1Xk4wzR-100" value="Οθόνη Ολοκλήρωσης &lt;br&gt;της Παραγγελίας" style="text;html=1;align=center;verticalAlign=middle;resizable=0;points=[];autosize=1;strokeColor=none;fillColor=none;" parent="1" vertex="1">
          <mxGeometry x="2015" y="75" width="140" height="40" as="geometry" />
        </mxCell>
        <mxCell id="wv0iCeW0pls4u1Xk4wzR-106" value="" style="shape=umlLifeline;perimeter=lifelinePerimeter;whiteSpace=wrap;html=1;container=1;dropTarget=0;collapsible=0;recursiveResize=0;outlineConnect=0;portConstraint=eastwest;newEdgeStyle={&quot;edgeStyle&quot;:&quot;elbowEdgeStyle&quot;,&quot;elbow&quot;:&quot;vertical&quot;,&quot;curved&quot;:0,&quot;rounded&quot;:0};participant=umlEntity;" parent="1" vertex="1">
          <mxGeometry x="2210" y="150" width="40" height="2250" as="geometry" />
        </mxCell>
        <mxCell id="wv0iCeW0pls4u1Xk4wzR-107" value="" style="html=1;points=[];perimeter=orthogonalPerimeter;outlineConnect=0;targetShapes=umlLifeline;portConstraint=eastwest;newEdgeStyle={&quot;edgeStyle&quot;:&quot;elbowEdgeStyle&quot;,&quot;elbow&quot;:&quot;vertical&quot;,&quot;curved&quot;:0,&quot;rounded&quot;:0};" parent="wv0iCeW0pls4u1Xk4wzR-106" vertex="1">
          <mxGeometry x="15" y="1640" width="10" height="50" as="geometry" />
        </mxCell>
        <mxCell id="wv0iCeW0pls4u1Xk4wzR-132" value="" style="html=1;points=[];perimeter=orthogonalPerimeter;outlineConnect=0;targetShapes=umlLifeline;portConstraint=eastwest;newEdgeStyle={&quot;edgeStyle&quot;:&quot;elbowEdgeStyle&quot;,&quot;elbow&quot;:&quot;vertical&quot;,&quot;curved&quot;:0,&quot;rounded&quot;:0};" parent="wv0iCeW0pls4u1Xk4wzR-106" vertex="1">
          <mxGeometry x="15" y="2120.33" width="10" height="29.67" as="geometry" />
        </mxCell>
        <mxCell id="wv0iCeW0pls4u1Xk4wzR-109" value="return_to_main_page()" style="html=1;verticalAlign=bottom;endArrow=open;dashed=1;endSize=8;edgeStyle=elbowEdgeStyle;elbow=vertical;curved=0;rounded=0;" parent="1" source="wv0iCeW0pls4u1Xk4wzR-107" target="wv0iCeW0pls4u1Xk4wzR-3" edge="1">
          <mxGeometry x="-0.044" relative="1" as="geometry">
            <mxPoint x="1960" y="1839" as="sourcePoint" />
            <mxPoint x="210" y="1810" as="targetPoint" />
            <mxPoint as="offset" />
            <Array as="points">
              <mxPoint x="2090" y="1840" />
            </Array>
          </mxGeometry>
        </mxCell>
        <mxCell id="wv0iCeW0pls4u1Xk4wzR-111" value="Παραγγελίες" style="text;html=1;align=center;verticalAlign=middle;resizable=0;points=[];autosize=1;strokeColor=none;fillColor=none;" parent="1" vertex="1">
          <mxGeometry x="2180" y="85" width="90" height="30" as="geometry" />
        </mxCell>
        <mxCell id="wv0iCeW0pls4u1Xk4wzR-112" value="premium yes" style="text;html=1;align=center;verticalAlign=middle;resizable=0;points=[];autosize=1;strokeColor=none;fillColor=none;" parent="1" vertex="1">
          <mxGeometry x="-50" y="1880" width="90" height="30" as="geometry" />
        </mxCell>
        <mxCell id="wv0iCeW0pls4u1Xk4wzR-113" value="" style="shape=umlLifeline;perimeter=lifelinePerimeter;whiteSpace=wrap;html=1;container=1;dropTarget=0;collapsible=0;recursiveResize=0;outlineConnect=0;portConstraint=eastwest;newEdgeStyle={&quot;edgeStyle&quot;:&quot;elbowEdgeStyle&quot;,&quot;elbow&quot;:&quot;vertical&quot;,&quot;curved&quot;:0,&quot;rounded&quot;:0};participant=umlBoundary;" parent="1" vertex="1">
          <mxGeometry x="2360" y="150" width="50" height="2250" as="geometry" />
        </mxCell>
        <mxCell id="wv0iCeW0pls4u1Xk4wzR-116" value="" style="html=1;points=[];perimeter=orthogonalPerimeter;outlineConnect=0;targetShapes=umlLifeline;portConstraint=eastwest;newEdgeStyle={&quot;edgeStyle&quot;:&quot;elbowEdgeStyle&quot;,&quot;elbow&quot;:&quot;vertical&quot;,&quot;curved&quot;:0,&quot;rounded&quot;:0};" parent="wv0iCeW0pls4u1Xk4wzR-113" vertex="1">
          <mxGeometry x="20" y="1790" width="10" height="420" as="geometry" />
        </mxCell>
        <mxCell id="wv0iCeW0pls4u1Xk4wzR-123" value="add_points()" style="html=1;align=left;spacingLeft=2;endArrow=block;rounded=0;edgeStyle=orthogonalEdgeStyle;curved=0;rounded=0;" parent="wv0iCeW0pls4u1Xk4wzR-113" edge="1">
          <mxGeometry relative="1" as="geometry">
            <mxPoint x="25" y="1920" as="sourcePoint" />
            <Array as="points">
              <mxPoint x="55" y="1950" />
            </Array>
            <mxPoint x="30" y="1950.066666666667" as="targetPoint" />
          </mxGeometry>
        </mxCell>
        <mxCell id="wv0iCeW0pls4u1Xk4wzR-114" value="Όθονη Εξαργύρωσης&lt;br&gt;&amp;nbsp;Πόντων" style="text;html=1;align=center;verticalAlign=middle;resizable=0;points=[];autosize=1;strokeColor=none;fillColor=none;" parent="1" vertex="1">
          <mxGeometry x="2315" y="90" width="140" height="40" as="geometry" />
        </mxCell>
        <mxCell id="wv0iCeW0pls4u1Xk4wzR-117" value="" style="shape=umlLifeline;perimeter=lifelinePerimeter;whiteSpace=wrap;html=1;container=1;dropTarget=0;collapsible=0;recursiveResize=0;outlineConnect=0;portConstraint=eastwest;newEdgeStyle={&quot;edgeStyle&quot;:&quot;elbowEdgeStyle&quot;,&quot;elbow&quot;:&quot;vertical&quot;,&quot;curved&quot;:0,&quot;rounded&quot;:0};participant=umlEntity;" parent="1" vertex="1">
          <mxGeometry x="2520" y="150" width="40" height="2260" as="geometry" />
        </mxCell>
        <mxCell id="wv0iCeW0pls4u1Xk4wzR-119" value="" style="html=1;points=[];perimeter=orthogonalPerimeter;outlineConnect=0;targetShapes=umlLifeline;portConstraint=eastwest;newEdgeStyle={&quot;edgeStyle&quot;:&quot;elbowEdgeStyle&quot;,&quot;elbow&quot;:&quot;vertical&quot;,&quot;curved&quot;:0,&quot;rounded&quot;:0};" parent="wv0iCeW0pls4u1Xk4wzR-117" vertex="1">
          <mxGeometry x="15" y="1880" width="10" height="110" as="geometry" />
        </mxCell>
        <mxCell id="wv0iCeW0pls4u1Xk4wzR-118" value="ποντοι" style="text;html=1;align=center;verticalAlign=middle;resizable=0;points=[];autosize=1;strokeColor=none;fillColor=none;" parent="1" vertex="1">
          <mxGeometry x="2510" y="105" width="60" height="30" as="geometry" />
        </mxCell>
        <mxCell id="wv0iCeW0pls4u1Xk4wzR-121" value="points()" style="html=1;verticalAlign=bottom;endArrow=open;dashed=1;endSize=8;edgeStyle=elbowEdgeStyle;elbow=vertical;curved=0;rounded=0;" parent="1" source="wv0iCeW0pls4u1Xk4wzR-117" target="wv0iCeW0pls4u1Xk4wzR-116" edge="1">
          <mxGeometry relative="1" as="geometry">
            <mxPoint x="2310" y="2040" as="sourcePoint" />
            <mxPoint x="2230" y="2040" as="targetPoint" />
            <Array as="points">
              <mxPoint x="2470" y="2060" />
              <mxPoint x="2250" y="2050" />
            </Array>
          </mxGeometry>
        </mxCell>
        <mxCell id="wv0iCeW0pls4u1Xk4wzR-127" value="finish_points()" style="html=1;verticalAlign=bottom;endArrow=open;dashed=1;endSize=8;edgeStyle=elbowEdgeStyle;elbow=vertical;curved=0;rounded=0;" parent="1" source="wv0iCeW0pls4u1Xk4wzR-116" target="wv0iCeW0pls4u1Xk4wzR-72" edge="1">
          <mxGeometry relative="1" as="geometry">
            <mxPoint x="2000" y="2150.33" as="sourcePoint" />
            <mxPoint x="1920" y="2150.33" as="targetPoint" />
            <Array as="points">
              <mxPoint x="1930" y="2170" />
            </Array>
          </mxGeometry>
        </mxCell>
        <mxCell id="Tsvf8lw3aR_uJxAvHTsw-1" value="Προβολή εναλλακτικών προϊόντων για&lt;br style=&quot;border-color: var(--border-color);&quot;&gt;προϊόντα που είναι out of stock" style="ellipse;whiteSpace=wrap;html=1;fillColor=#d5e8d4;strokeColor=#82b366;" parent="1" vertex="1">
          <mxGeometry x="2700" y="800" width="150" height="80" as="geometry" />
        </mxCell>
        <mxCell id="Tsvf8lw3aR_uJxAvHTsw-2" value="" style="endArrow=classic;html=1;rounded=0;entryX=0;entryY=0.5;entryDx=0;entryDy=0;fillColor=#d5e8d4;strokeColor=#82b366;" parent="1" source="wv0iCeW0pls4u1Xk4wzR-47" target="Tsvf8lw3aR_uJxAvHTsw-1" edge="1">
          <mxGeometry width="50" height="50" relative="1" as="geometry">
            <mxPoint x="1220" y="820" as="sourcePoint" />
            <mxPoint x="1270" y="770" as="targetPoint" />
            <Array as="points" />
          </mxGeometry>
        </mxCell>
        <mxCell id="Tsvf8lw3aR_uJxAvHTsw-3" value="" style="endArrow=classic;html=1;rounded=0;exitX=1.5;exitY=0.917;exitDx=0;exitDy=0;exitPerimeter=0;entryX=0.5;entryY=1;entryDx=0;entryDy=0;fillColor=#d5e8d4;strokeColor=#82b366;" parent="1" source="wv0iCeW0pls4u1Xk4wzR-41" target="Tsvf8lw3aR_uJxAvHTsw-1" edge="1">
          <mxGeometry width="50" height="50" relative="1" as="geometry">
            <mxPoint x="1070" y="820" as="sourcePoint" />
            <mxPoint x="1120" y="770" as="targetPoint" />
            <Array as="points">
              <mxPoint x="2775" y="910" />
            </Array>
          </mxGeometry>
        </mxCell>
        <mxCell id="Tsvf8lw3aR_uJxAvHTsw-4" value="" style="shape=umlLifeline;perimeter=lifelinePerimeter;whiteSpace=wrap;html=1;container=1;dropTarget=0;collapsible=0;recursiveResize=0;outlineConnect=0;portConstraint=eastwest;newEdgeStyle={&quot;edgeStyle&quot;:&quot;elbowEdgeStyle&quot;,&quot;elbow&quot;:&quot;vertical&quot;,&quot;curved&quot;:0,&quot;rounded&quot;:0};participant=umlEntity;" parent="1" vertex="1">
          <mxGeometry x="1525" y="150" width="40" height="2250" as="geometry" />
        </mxCell>
        <mxCell id="Tsvf8lw3aR_uJxAvHTsw-13" value="" style="html=1;points=[];perimeter=orthogonalPerimeter;outlineConnect=0;targetShapes=umlLifeline;portConstraint=eastwest;newEdgeStyle={&quot;edgeStyle&quot;:&quot;elbowEdgeStyle&quot;,&quot;elbow&quot;:&quot;vertical&quot;,&quot;curved&quot;:0,&quot;rounded&quot;:0};" parent="Tsvf8lw3aR_uJxAvHTsw-4" vertex="1">
          <mxGeometry x="15" y="920" width="10" height="40" as="geometry" />
        </mxCell>
        <mxCell id="Tsvf8lw3aR_uJxAvHTsw-14" value="return_price()" style="html=1;verticalAlign=bottom;endArrow=open;dashed=1;endSize=8;edgeStyle=elbowEdgeStyle;elbow=vertical;curved=0;rounded=0;" parent="1" source="Tsvf8lw3aR_uJxAvHTsw-4" target="wv0iCeW0pls4u1Xk4wzR-63" edge="1">
          <mxGeometry relative="1" as="geometry">
            <mxPoint x="1440" y="1150" as="sourcePoint" />
            <mxPoint x="1310" y="1110" as="targetPoint" />
            <Array as="points">
              <mxPoint x="1430" y="1110" />
              <mxPoint x="1330" y="1110" />
            </Array>
          </mxGeometry>
        </mxCell>
        <mxCell id="Tsvf8lw3aR_uJxAvHTsw-15" value="Προϊόντα&amp;nbsp;&lt;br&gt;φαρμακείου" style="text;html=1;align=center;verticalAlign=middle;resizable=0;points=[];autosize=1;strokeColor=none;fillColor=none;" parent="1" vertex="1">
          <mxGeometry x="1500" y="80" width="90" height="40" as="geometry" />
        </mxCell>
        <mxCell id="Tsvf8lw3aR_uJxAvHTsw-17" value="return_total_sum()" style="html=1;verticalAlign=bottom;endArrow=open;dashed=1;endSize=8;edgeStyle=elbowEdgeStyle;elbow=vertical;curved=0;rounded=0;" parent="1" source="wv0iCeW0pls4u1Xk4wzR-113" target="wv0iCeW0pls4u1Xk4wzR-93" edge="1">
          <mxGeometry x="-0.7182" relative="1" as="geometry">
            <mxPoint x="2020" y="1970" as="sourcePoint" />
            <mxPoint x="1940" y="1970" as="targetPoint" />
            <Array as="points">
              <mxPoint x="2080" y="1970" />
              <mxPoint x="1820" y="1960" />
              <mxPoint x="1590" y="1970" />
            </Array>
            <mxPoint as="offset" />
          </mxGeometry>
        </mxCell>
        <mxCell id="Tsvf8lw3aR_uJxAvHTsw-18" value="return_total_sum()" style="html=1;verticalAlign=bottom;endArrow=open;dashed=1;endSize=8;edgeStyle=elbowEdgeStyle;elbow=vertical;curved=0;rounded=0;entryX=1;entryY=0.342;entryDx=0;entryDy=0;entryPerimeter=0;" parent="1" source="wv0iCeW0pls4u1Xk4wzR-101" target="wv0iCeW0pls4u1Xk4wzR-93" edge="1">
          <mxGeometry relative="1" as="geometry">
            <mxPoint x="1770" y="1710.06" as="sourcePoint" />
            <mxPoint x="1690" y="1710.06" as="targetPoint" />
            <Array as="points">
              <mxPoint x="2020" y="1705" />
              <mxPoint x="2020" y="1702" />
              <mxPoint x="1870" y="1702" />
              <mxPoint x="2000" y="1712" />
              <mxPoint x="1920" y="1720" />
              <mxPoint x="1720" y="1707" />
              <mxPoint x="1620" y="1700" />
              <mxPoint x="1810" y="1710" />
              <mxPoint x="1620" y="1700" />
            </Array>
          </mxGeometry>
        </mxCell>
        <mxCell id="Tsvf8lw3aR_uJxAvHTsw-19" value="return_main_page()" style="html=1;verticalAlign=bottom;endArrow=open;dashed=1;endSize=8;edgeStyle=elbowEdgeStyle;elbow=vertical;curved=0;rounded=0;" parent="1" source="wv0iCeW0pls4u1Xk4wzR-29" target="wv0iCeW0pls4u1Xk4wzR-3" edge="1">
          <mxGeometry x="-0.2841" relative="1" as="geometry">
            <mxPoint x="710" y="500" as="sourcePoint" />
            <mxPoint x="630" y="500" as="targetPoint" />
            <Array as="points">
              <mxPoint x="580" y="510" />
            </Array>
            <mxPoint as="offset" />
          </mxGeometry>
        </mxCell>
        <mxCell id="PGT5VEHHqZoybGRJl4zS-2" value="frame" style="shape=umlFrame;whiteSpace=wrap;html=1;pointerEvents=0;fillColor=#f8cecc;strokeColor=#b85450;" parent="1" vertex="1">
          <mxGeometry x="760" y="1910" width="1900" height="410" as="geometry" />
        </mxCell>
        <mxCell id="PGT5VEHHqZoybGRJl4zS-4" value="Εξαργύρωση πόντων" style="ellipse;whiteSpace=wrap;html=1;fontSize=13;fillColor=#d5e8d4;strokeColor=#82b366;" parent="1" vertex="1">
          <mxGeometry x="2810" y="2300" width="150" height="120" as="geometry" />
        </mxCell>
        <mxCell id="PGT5VEHHqZoybGRJl4zS-5" value="" style="endArrow=classic;html=1;rounded=0;entryX=0;entryY=0.5;entryDx=0;entryDy=0;fillColor=#d5e8d4;strokeColor=#82b366;" parent="1" source="wv0iCeW0pls4u1Xk4wzR-116" target="PGT5VEHHqZoybGRJl4zS-4" edge="1">
          <mxGeometry width="50" height="50" relative="1" as="geometry">
            <mxPoint x="2420" y="2240" as="sourcePoint" />
            <mxPoint x="2470" y="2190" as="targetPoint" />
          </mxGeometry>
        </mxCell>
        <mxCell id="PGT5VEHHqZoybGRJl4zS-6" value="no redeem&amp;nbsp;&lt;br&gt;points" style="text;html=1;align=center;verticalAlign=middle;resizable=0;points=[];autosize=1;strokeColor=none;fillColor=none;" parent="1" vertex="1">
          <mxGeometry x="760" y="1950" width="80" height="40" as="geometry" />
        </mxCell>
        <mxCell id="PGT5VEHHqZoybGRJl4zS-7" value="redeem points" style="text;html=1;align=center;verticalAlign=middle;resizable=0;points=[];autosize=1;strokeColor=none;fillColor=none;" parent="1" vertex="1">
          <mxGeometry x="750" y="2320" width="100" height="30" as="geometry" />
        </mxCell>
        <mxCell id="RtQH5lmCM18qcD3E0uqo-3" value=":main_screen" style="rounded=0;whiteSpace=wrap;html=1;" parent="1" vertex="1">
          <mxGeometry x="135" y="130" width="120" height="60" as="geometry" />
        </mxCell>
        <mxCell id="RtQH5lmCM18qcD3E0uqo-5" value=":products" style="whiteSpace=wrap;html=1;" parent="1" vertex="1">
          <mxGeometry x="300" y="130" width="120" height="60" as="geometry" />
        </mxCell>
        <mxCell id="RtQH5lmCM18qcD3E0uqo-6" value=":category_products_screen" style="whiteSpace=wrap;html=1;" parent="1" vertex="1">
          <mxGeometry x="447.5" y="130" width="155" height="60" as="geometry" />
        </mxCell>
        <mxCell id="RtQH5lmCM18qcD3E0uqo-7" value=":add_favorite_screen" style="whiteSpace=wrap;html=1;" parent="1" vertex="1">
          <mxGeometry x="645" y="130" width="120" height="60" as="geometry" />
        </mxCell>
        <mxCell id="RtQH5lmCM18qcD3E0uqo-8" value=":favorite" style="whiteSpace=wrap;html=1;" parent="1" vertex="1">
          <mxGeometry x="790" y="130" width="120" height="60" as="geometry" />
        </mxCell>
        <mxCell id="RtQH5lmCM18qcD3E0uqo-9" value=":premium" style="whiteSpace=wrap;html=1;" parent="1" vertex="1">
          <mxGeometry x="925" y="130" width="110" height="60" as="geometry" />
        </mxCell>
        <mxCell id="RtQH5lmCM18qcD3E0uqo-10" value=":select_alternative" style="whiteSpace=wrap;html=1;" parent="1" vertex="1">
          <mxGeometry x="1065" y="130" width="120" height="60" as="geometry" />
        </mxCell>
        <mxCell id="RtQH5lmCM18qcD3E0uqo-11" value=":premium_interest" style="rounded=0;whiteSpace=wrap;html=1;" parent="1" vertex="1">
          <mxGeometry x="1190" y="130" width="120" height="60" as="geometry" />
        </mxCell>
        <mxCell id="RtQH5lmCM18qcD3E0uqo-12" value=":pharmacy" style="whiteSpace=wrap;html=1;" parent="1" vertex="1">
          <mxGeometry x="1340" y="130" width="120" height="60" as="geometry" />
        </mxCell>
        <mxCell id="RtQH5lmCM18qcD3E0uqo-13" value=":inventory" style="whiteSpace=wrap;html=1;" parent="1" vertex="1">
          <mxGeometry x="1485" y="130" width="120" height="60" as="geometry" />
        </mxCell>
        <mxCell id="RtQH5lmCM18qcD3E0uqo-14" value=":available_pharm_&lt;br&gt;screen" style="whiteSpace=wrap;html=1;" parent="1" vertex="1">
          <mxGeometry x="1620" y="130" width="120" height="60" as="geometry" />
        </mxCell>
        <mxCell id="RtQH5lmCM18qcD3E0uqo-15" value=":cart" style="whiteSpace=wrap;html=1;" parent="1" vertex="1">
          <mxGeometry x="1750" y="130" width="120" height="60" as="geometry" />
        </mxCell>
        <mxCell id="RtQH5lmCM18qcD3E0uqo-16" value=":cart_scren" style="whiteSpace=wrap;html=1;" parent="1" vertex="1">
          <mxGeometry x="1875" y="130" width="120" height="60" as="geometry" />
        </mxCell>
        <mxCell id="RtQH5lmCM18qcD3E0uqo-17" value=":place_order_screen" style="whiteSpace=wrap;html=1;" parent="1" vertex="1">
          <mxGeometry x="2015" y="130" width="120" height="60" as="geometry" />
        </mxCell>
        <mxCell id="RtQH5lmCM18qcD3E0uqo-19" value=":orders" style="whiteSpace=wrap;html=1;" parent="1" vertex="1">
          <mxGeometry x="2170" y="130" width="120" height="60" as="geometry" />
        </mxCell>
        <mxCell id="RtQH5lmCM18qcD3E0uqo-20" value=":discount_screen" style="whiteSpace=wrap;html=1;" parent="1" vertex="1">
          <mxGeometry x="2325" y="135" width="120" height="60" as="geometry" />
        </mxCell>
        <mxCell id="RtQH5lmCM18qcD3E0uqo-21" value=":points" style="whiteSpace=wrap;html=1;" parent="1" vertex="1">
          <mxGeometry x="2480" y="135" width="120" height="60" as="geometry" />
        </mxCell>
        <mxCell id="agV2PMdbLBGLsb0E6F8l-1" value="show alternative" style="text;html=1;align=center;verticalAlign=middle;resizable=0;points=[];autosize=1;strokeColor=none;fillColor=none;" parent="1" vertex="1">
          <mxGeometry x="875" y="820" width="110" height="30" as="geometry" />
        </mxCell>
        <mxCell id="tBPgOc56z3LFOiHeoi3J-1" value="select_category()" style="html=1;verticalAlign=bottom;endArrow=block;edgeStyle=elbowEdgeStyle;elbow=vertical;curved=0;rounded=0;" edge="1" parent="1" source="wv0iCeW0pls4u1Xk4wzR-1" target="wv0iCeW0pls4u1Xk4wzR-5">
          <mxGeometry width="80" relative="1" as="geometry">
            <mxPoint x="75" y="230" as="sourcePoint" />
            <mxPoint x="155" y="230" as="targetPoint" />
            <Array as="points">
              <mxPoint x="110" y="220" />
            </Array>
          </mxGeometry>
        </mxCell>
        <mxCell id="tBPgOc56z3LFOiHeoi3J-2" value="search_products()" style="html=1;verticalAlign=bottom;endArrow=block;edgeStyle=elbowEdgeStyle;elbow=vertical;curved=0;rounded=0;" edge="1" parent="1" source="wv0iCeW0pls4u1Xk4wzR-5" target="wv0iCeW0pls4u1Xk4wzR-8">
          <mxGeometry width="80" relative="1" as="geometry">
            <mxPoint x="255" y="260" as="sourcePoint" />
            <mxPoint x="335" y="260" as="targetPoint" />
            <Array as="points">
              <mxPoint x="280" y="260" />
            </Array>
            <mxPoint as="offset" />
          </mxGeometry>
        </mxCell>
        <mxCell id="tBPgOc56z3LFOiHeoi3J-3" value="display_products()" style="html=1;verticalAlign=bottom;endArrow=block;edgeStyle=elbowEdgeStyle;elbow=vertical;curved=0;rounded=0;" edge="1" parent="1" source="wv0iCeW0pls4u1Xk4wzR-8" target="wv0iCeW0pls4u1Xk4wzR-13">
          <mxGeometry width="80" relative="1" as="geometry">
            <mxPoint x="395" y="310" as="sourcePoint" />
            <mxPoint x="475" y="310" as="targetPoint" />
          </mxGeometry>
        </mxCell>
        <mxCell id="tBPgOc56z3LFOiHeoi3J-4" value="select_product()" style="html=1;verticalAlign=bottom;endArrow=block;edgeStyle=elbowEdgeStyle;elbow=vertical;curved=0;rounded=0;" edge="1" parent="1" source="wv0iCeW0pls4u1Xk4wzR-1" target="wv0iCeW0pls4u1Xk4wzR-13">
          <mxGeometry width="80" relative="1" as="geometry">
            <mxPoint x="100" y="310" as="sourcePoint" />
            <mxPoint x="180" y="310" as="targetPoint" />
            <Array as="points">
              <mxPoint x="170" y="340" />
            </Array>
          </mxGeometry>
        </mxCell>
        <mxCell id="tBPgOc56z3LFOiHeoi3J-5" value="ask_favorite()" style="html=1;verticalAlign=bottom;endArrow=block;edgeStyle=elbowEdgeStyle;elbow=vertical;curved=0;rounded=0;" edge="1" parent="1" source="wv0iCeW0pls4u1Xk4wzR-13" target="wv0iCeW0pls4u1Xk4wzR-19">
          <mxGeometry width="80" relative="1" as="geometry">
            <mxPoint x="590" y="370" as="sourcePoint" />
            <mxPoint x="670" y="370" as="targetPoint" />
            <Array as="points">
              <mxPoint x="580" y="370" />
            </Array>
          </mxGeometry>
        </mxCell>
        <mxCell id="tBPgOc56z3LFOiHeoi3J-6" value="answer_favorite()" style="html=1;verticalAlign=bottom;endArrow=block;edgeStyle=elbowEdgeStyle;elbow=vertical;curved=0;rounded=0;" edge="1" parent="1" source="wv0iCeW0pls4u1Xk4wzR-1" target="wv0iCeW0pls4u1Xk4wzR-17">
          <mxGeometry width="80" relative="1" as="geometry">
            <mxPoint x="220" y="410" as="sourcePoint" />
            <mxPoint x="300" y="410" as="targetPoint" />
            <Array as="points">
              <mxPoint x="470" y="410" />
            </Array>
            <mxPoint as="offset" />
          </mxGeometry>
        </mxCell>
        <mxCell id="tBPgOc56z3LFOiHeoi3J-7" value="addProduct_favorite()" style="html=1;verticalAlign=bottom;endArrow=block;edgeStyle=elbowEdgeStyle;elbow=vertical;curved=0;rounded=0;" edge="1" parent="1" source="wv0iCeW0pls4u1Xk4wzR-19" target="wv0iCeW0pls4u1Xk4wzR-28">
          <mxGeometry width="80" relative="1" as="geometry">
            <mxPoint x="730" y="470" as="sourcePoint" />
            <mxPoint x="810" y="470" as="targetPoint" />
            <Array as="points">
              <mxPoint x="820" y="480" />
              <mxPoint x="770" y="470" />
            </Array>
            <mxPoint as="offset" />
          </mxGeometry>
        </mxCell>
        <mxCell id="tBPgOc56z3LFOiHeoi3J-8" value="check_premium()" style="html=1;verticalAlign=bottom;endArrow=block;edgeStyle=elbowEdgeStyle;elbow=vertical;curved=0;rounded=0;" edge="1" parent="1" source="wv0iCeW0pls4u1Xk4wzR-33" target="wv0iCeW0pls4u1Xk4wzR-41">
          <mxGeometry width="80" relative="1" as="geometry">
            <mxPoint x="600" y="700" as="sourcePoint" />
            <mxPoint x="680" y="700" as="targetPoint" />
            <Array as="points">
              <mxPoint x="770" y="680" />
            </Array>
            <mxPoint as="offset" />
          </mxGeometry>
        </mxCell>
        <mxCell id="tBPgOc56z3LFOiHeoi3J-9" value="ask_for_interest()" style="html=1;verticalAlign=bottom;endArrow=block;edgeStyle=elbowEdgeStyle;elbow=vertical;curved=0;rounded=0;" edge="1" parent="1" source="wv0iCeW0pls4u1Xk4wzR-41" target="wv0iCeW0pls4u1Xk4wzR-48">
          <mxGeometry width="80" relative="1" as="geometry">
            <mxPoint x="1000" y="750" as="sourcePoint" />
            <mxPoint x="1080" y="750" as="targetPoint" />
            <Array as="points">
              <mxPoint x="1020" y="750" />
            </Array>
          </mxGeometry>
        </mxCell>
        <mxCell id="tBPgOc56z3LFOiHeoi3J-10" value="add_interest()" style="html=1;verticalAlign=bottom;endArrow=block;edgeStyle=elbowEdgeStyle;elbow=vertical;curved=0;rounded=0;" edge="1" parent="1" source="wv0iCeW0pls4u1Xk4wzR-48" target="wv0iCeW0pls4u1Xk4wzR-55">
          <mxGeometry width="80" relative="1" as="geometry">
            <mxPoint x="1150" y="795" as="sourcePoint" />
            <mxPoint x="1230" y="795" as="targetPoint" />
            <Array as="points">
              <mxPoint x="1220" y="800" />
            </Array>
          </mxGeometry>
        </mxCell>
        <mxCell id="tBPgOc56z3LFOiHeoi3J-11" value="search_pharmacies()" style="html=1;verticalAlign=bottom;endArrow=block;edgeStyle=elbowEdgeStyle;elbow=vertical;curved=0;rounded=0;" edge="1" parent="1" source="wv0iCeW0pls4u1Xk4wzR-7" target="wv0iCeW0pls4u1Xk4wzR-61">
          <mxGeometry width="80" relative="1" as="geometry">
            <mxPoint x="950" y="1010" as="sourcePoint" />
            <mxPoint x="1030" y="1010" as="targetPoint" />
            <Array as="points">
              <mxPoint x="580" y="1030" />
              <mxPoint x="1050" y="1050" />
            </Array>
          </mxGeometry>
        </mxCell>
        <mxCell id="tBPgOc56z3LFOiHeoi3J-12" value="search_inventory()" style="html=1;verticalAlign=bottom;endArrow=block;edgeStyle=elbowEdgeStyle;elbow=vertical;curved=0;rounded=0;" edge="1" parent="1" source="wv0iCeW0pls4u1Xk4wzR-61" target="Tsvf8lw3aR_uJxAvHTsw-13">
          <mxGeometry width="80" relative="1" as="geometry">
            <mxPoint x="1425" y="1070" as="sourcePoint" />
            <mxPoint x="1505" y="1070" as="targetPoint" />
            <Array as="points">
              <mxPoint x="1440" y="1070" />
            </Array>
          </mxGeometry>
        </mxCell>
        <mxCell id="tBPgOc56z3LFOiHeoi3J-13" value="display_pharmacies()" style="html=1;verticalAlign=bottom;endArrow=block;edgeStyle=elbowEdgeStyle;elbow=vertical;curved=0;rounded=0;" edge="1" parent="1" source="wv0iCeW0pls4u1Xk4wzR-63" target="wv0iCeW0pls4u1Xk4wzR-67">
          <mxGeometry width="80" relative="1" as="geometry">
            <mxPoint x="1560" y="1150" as="sourcePoint" />
            <mxPoint x="1640" y="1150" as="targetPoint" />
            <Array as="points">
              <mxPoint x="1610" y="1150" />
            </Array>
          </mxGeometry>
        </mxCell>
        <mxCell id="tBPgOc56z3LFOiHeoi3J-14" value="select_pharmacy()" style="html=1;verticalAlign=bottom;endArrow=block;edgeStyle=elbowEdgeStyle;elbow=vertical;curved=0;rounded=0;" edge="1" parent="1" source="wv0iCeW0pls4u1Xk4wzR-1" target="wv0iCeW0pls4u1Xk4wzR-65">
          <mxGeometry width="80" relative="1" as="geometry">
            <mxPoint x="580" y="1010" as="sourcePoint" />
            <mxPoint x="660" y="1010" as="targetPoint" />
            <Array as="points">
              <mxPoint x="940" y="1190" />
              <mxPoint x="1630" y="1210" />
            </Array>
          </mxGeometry>
        </mxCell>
        <mxCell id="tBPgOc56z3LFOiHeoi3J-15" value="display_add_more()" style="html=1;verticalAlign=bottom;endArrow=block;edgeStyle=elbowEdgeStyle;elbow=vertical;curved=0;rounded=0;" edge="1" parent="1" source="wv0iCeW0pls4u1Xk4wzR-73" target="wv0iCeW0pls4u1Xk4wzR-77">
          <mxGeometry width="80" relative="1" as="geometry">
            <mxPoint x="1830" y="1310" as="sourcePoint" />
            <mxPoint x="1910" y="1310" as="targetPoint" />
          </mxGeometry>
        </mxCell>
        <mxCell id="tBPgOc56z3LFOiHeoi3J-16" value="answer_add_more()" style="html=1;verticalAlign=bottom;endArrow=block;edgeStyle=elbowEdgeStyle;elbow=vertical;curved=0;rounded=0;" edge="1" parent="1" source="wv0iCeW0pls4u1Xk4wzR-1" target="wv0iCeW0pls4u1Xk4wzR-77">
          <mxGeometry width="80" relative="1" as="geometry">
            <mxPoint x="670" y="1410" as="sourcePoint" />
            <mxPoint x="750" y="1410" as="targetPoint" />
            <Array as="points">
              <mxPoint x="1080" y="1340" />
              <mxPoint x="1160" y="1320" />
              <mxPoint x="1860" y="1330" />
            </Array>
          </mxGeometry>
        </mxCell>
        <mxCell id="tBPgOc56z3LFOiHeoi3J-18" value="total_sum()" style="html=1;verticalAlign=bottom;endArrow=block;edgeStyle=elbowEdgeStyle;elbow=vertical;curved=0;rounded=0;" edge="1" parent="1" source="wv0iCeW0pls4u1Xk4wzR-93" target="wv0iCeW0pls4u1Xk4wzR-101">
          <mxGeometry width="80" relative="1" as="geometry">
            <mxPoint x="1850" y="1730" as="sourcePoint" />
            <mxPoint x="1930" y="1730" as="targetPoint" />
            <Array as="points">
              <mxPoint x="2010" y="1730" />
            </Array>
            <mxPoint as="offset" />
          </mxGeometry>
        </mxCell>
        <mxCell id="tBPgOc56z3LFOiHeoi3J-19" value="finish_order()" style="html=1;verticalAlign=bottom;endArrow=block;edgeStyle=elbowEdgeStyle;elbow=vertical;curved=0;rounded=0;" edge="1" parent="1" source="wv0iCeW0pls4u1Xk4wzR-1" target="wv0iCeW0pls4u1Xk4wzR-101">
          <mxGeometry width="80" relative="1" as="geometry">
            <mxPoint x="1530" y="1610" as="sourcePoint" />
            <mxPoint x="1610" y="1610" as="targetPoint" />
            <Array as="points">
              <mxPoint x="1580" y="1750" />
            </Array>
          </mxGeometry>
        </mxCell>
        <mxCell id="tBPgOc56z3LFOiHeoi3J-20" value="place_order()" style="html=1;verticalAlign=bottom;endArrow=block;edgeStyle=elbowEdgeStyle;elbow=vertical;curved=0;rounded=0;" edge="1" parent="1" source="wv0iCeW0pls4u1Xk4wzR-99" target="wv0iCeW0pls4u1Xk4wzR-107">
          <mxGeometry width="80" relative="1" as="geometry">
            <mxPoint x="2110" y="1810" as="sourcePoint" />
            <mxPoint x="2190" y="1810" as="targetPoint" />
            <Array as="points">
              <mxPoint x="2200" y="1790" />
            </Array>
          </mxGeometry>
        </mxCell>
        <mxCell id="tBPgOc56z3LFOiHeoi3J-21" value="premium_no()" style="html=1;verticalAlign=bottom;endArrow=block;edgeStyle=elbowEdgeStyle;elbow=vertical;curved=0;rounded=0;" edge="1" parent="1" source="wv0iCeW0pls4u1Xk4wzR-94" target="wv0iCeW0pls4u1Xk4wzR-101">
          <mxGeometry width="80" relative="1" as="geometry">
            <mxPoint x="1460" y="1810" as="sourcePoint" />
            <mxPoint x="1540" y="1810" as="targetPoint" />
            <Array as="points">
              <mxPoint x="1650" y="1680" />
              <mxPoint x="1500" y="1660" />
            </Array>
          </mxGeometry>
        </mxCell>
        <mxCell id="tBPgOc56z3LFOiHeoi3J-22" value="premium_yes()" style="html=1;verticalAlign=bottom;endArrow=block;edgeStyle=elbowEdgeStyle;elbow=vertical;curved=0;rounded=0;" edge="1" parent="1" source="wv0iCeW0pls4u1Xk4wzR-94" target="wv0iCeW0pls4u1Xk4wzR-113">
          <mxGeometry width="80" relative="1" as="geometry">
            <mxPoint x="1590" y="1810" as="sourcePoint" />
            <mxPoint x="1670" y="1810" as="targetPoint" />
            <Array as="points">
              <mxPoint x="1750" y="1940" />
              <mxPoint x="2290" y="1870" />
            </Array>
          </mxGeometry>
        </mxCell>
        <mxCell id="tBPgOc56z3LFOiHeoi3J-23" value="total_sum()" style="html=1;verticalAlign=bottom;endArrow=block;edgeStyle=elbowEdgeStyle;elbow=vertical;curved=0;rounded=0;" edge="1" parent="1" source="wv0iCeW0pls4u1Xk4wzR-93" target="wv0iCeW0pls4u1Xk4wzR-116">
          <mxGeometry width="80" relative="1" as="geometry">
            <mxPoint x="2100" y="2000" as="sourcePoint" />
            <mxPoint x="2180" y="2000" as="targetPoint" />
            <Array as="points">
              <mxPoint x="2280" y="1990" />
            </Array>
            <mxPoint as="offset" />
          </mxGeometry>
        </mxCell>
        <mxCell id="tBPgOc56z3LFOiHeoi3J-24" value="select_option_points()" style="html=1;verticalAlign=bottom;endArrow=block;edgeStyle=elbowEdgeStyle;elbow=vertical;curved=0;rounded=0;" edge="1" parent="1" source="wv0iCeW0pls4u1Xk4wzR-1" target="wv0iCeW0pls4u1Xk4wzR-116">
          <mxGeometry width="80" relative="1" as="geometry">
            <mxPoint x="1910" y="2110" as="sourcePoint" />
            <mxPoint x="1990" y="2110" as="targetPoint" />
            <Array as="points">
              <mxPoint x="1770" y="2010" />
              <mxPoint x="2300" y="2000" />
            </Array>
          </mxGeometry>
        </mxCell>
        <mxCell id="tBPgOc56z3LFOiHeoi3J-25" value="Text" style="edgeLabel;html=1;align=center;verticalAlign=middle;resizable=0;points=[];" vertex="1" connectable="0" parent="tBPgOc56z3LFOiHeoi3J-24">
          <mxGeometry x="0.0142" y="-2" relative="1" as="geometry">
            <mxPoint as="offset" />
          </mxGeometry>
        </mxCell>
        <mxCell id="tBPgOc56z3LFOiHeoi3J-26" value="check_points" style="html=1;verticalAlign=bottom;endArrow=block;edgeStyle=elbowEdgeStyle;elbow=vertical;curved=0;rounded=0;" edge="1" parent="1" source="wv0iCeW0pls4u1Xk4wzR-116" target="wv0iCeW0pls4u1Xk4wzR-119">
          <mxGeometry width="80" relative="1" as="geometry">
            <mxPoint x="2120" y="2110" as="sourcePoint" />
            <mxPoint x="2200" y="2110" as="targetPoint" />
            <Array as="points">
              <mxPoint x="2500" y="2030" />
              <mxPoint x="2510" y="1980" />
            </Array>
          </mxGeometry>
        </mxCell>
        <mxCell id="tBPgOc56z3LFOiHeoi3J-27" value="new_points()" style="html=1;verticalAlign=bottom;endArrow=block;edgeStyle=elbowEdgeStyle;elbow=vertical;curved=0;rounded=0;" edge="1" parent="1" source="wv0iCeW0pls4u1Xk4wzR-116" target="wv0iCeW0pls4u1Xk4wzR-119">
          <mxGeometry width="80" relative="1" as="geometry">
            <mxPoint x="2420" y="2140" as="sourcePoint" />
            <mxPoint x="2500" y="2140" as="targetPoint" />
            <Array as="points">
              <mxPoint x="2500" y="2140" />
            </Array>
          </mxGeometry>
        </mxCell>
        <mxCell id="tBPgOc56z3LFOiHeoi3J-28" value="total_sum()" style="html=1;verticalAlign=bottom;endArrow=block;edgeStyle=elbowEdgeStyle;elbow=vertical;curved=0;rounded=0;" edge="1" parent="1" source="wv0iCeW0pls4u1Xk4wzR-72" target="wv0iCeW0pls4u1Xk4wzR-129">
          <mxGeometry width="80" relative="1" as="geometry">
            <mxPoint x="1935" y="2210" as="sourcePoint" />
            <mxPoint x="2015" y="2210" as="targetPoint" />
            <Array as="points">
              <mxPoint x="2030" y="2200" />
            </Array>
            <mxPoint as="offset" />
          </mxGeometry>
        </mxCell>
        <mxCell id="tBPgOc56z3LFOiHeoi3J-29" value="finishi_order()" style="html=1;verticalAlign=bottom;endArrow=block;edgeStyle=elbowEdgeStyle;elbow=vertical;curved=0;rounded=0;" edge="1" parent="1" source="wv0iCeW0pls4u1Xk4wzR-1" target="wv0iCeW0pls4u1Xk4wzR-129">
          <mxGeometry width="80" relative="1" as="geometry">
            <mxPoint x="955" y="2260" as="sourcePoint" />
            <mxPoint x="1035" y="2260" as="targetPoint" />
          </mxGeometry>
        </mxCell>
        <mxCell id="tBPgOc56z3LFOiHeoi3J-30" value="place_order()" style="html=1;verticalAlign=bottom;endArrow=block;edgeStyle=elbowEdgeStyle;elbow=vertical;curved=0;rounded=0;" edge="1" parent="1" source="wv0iCeW0pls4u1Xk4wzR-129" target="wv0iCeW0pls4u1Xk4wzR-106">
          <mxGeometry width="80" relative="1" as="geometry">
            <mxPoint x="2125" y="2270" as="sourcePoint" />
            <mxPoint x="2205" y="2270" as="targetPoint" />
            <Array as="points">
              <mxPoint x="2190" y="2270" />
            </Array>
          </mxGeometry>
        </mxCell>
      </root>
    </mxGraphModel>
  </diagram>
</mxfile>
